<?xml version="1.0" encoding="UTF-8"?>
<svg id="Layer_2" data-name="Layer 2" xmlns="http://www.w3.org/2000/svg" viewBox="0 0 387.93 553.71">
  <defs>
    <style>
      .cls-1 {
        fill: #67645E;
      }
    </style>
  </defs>
  <g id="_1080_x_1080_px_Logo_Set_1" data-name="1080 x 1080 px Logo Set 1">
    <g>
      <path class="cls-1" d="M91.49,286.26c-17.3,0-32.83-3.81-46.58-11.43-13.75-7.62-24.68-17.78-32.77-30.47-8.1-12.7-12.14-26.66-12.14-41.9,0-16.93,3.66-31.74,10.98-44.44,7.32-12.7,17.63-22.54,30.94-29.52,13.31-6.98,28.72-10.48,46.25-10.48,10.86,0,21.07,2.22,30.61,6.66,9.54,4.45,17.3,10.32,23.29,17.62,5.99,7.3,8.98,15.08,8.98,23.33h-27.95V49.77h59.89v152.69c0,16.09-3.94,30.47-11.81,43.17-7.88,12.7-18.69,22.65-32.44,29.84-13.76,7.19-29.5,10.79-47.24,10.79ZM91.49,232.62c6.43,0,11.98-1.37,16.64-4.13,4.66-2.75,8.32-6.45,10.98-11.11,2.66-4.65,3.99-9.73,3.99-15.24s-1.33-10.58-3.99-15.24c-2.66-4.65-6.32-8.36-10.98-11.11-4.66-2.75-10.21-4.13-16.64-4.13s-11.7,1.38-16.47,4.13c-4.77,2.75-8.48,6.45-11.15,11.11-2.66,4.66-3.99,9.73-3.99,15.24s1.33,10.58,3.99,15.24c2.66,4.66,6.37,8.36,11.15,11.11,4.77,2.76,10.26,4.13,16.47,4.13Z"/>
      <path class="cls-1" d="M300.43,232.86c6.43,0,11.7-1.63,15.8-4.88,4.1-3.25,7.1-7.58,8.98-12.97,1.88-5.39,2.83-11.24,2.83-17.55v-68.37h59.89v75.08c0,14.86-3.22,28.54-9.65,41.05-6.43,12.51-16.08,22.48-28.95,29.91-12.87,7.43-29.17,11.14-48.91,11.14s-35.76-3.71-48.74-11.14c-12.98-7.43-22.68-17.4-29.11-29.91-6.43-12.51-9.65-26.2-9.65-41.05v-75.08h59.89v68.37c0,6.31.94,12.16,2.83,17.55,1.88,5.39,4.88,9.72,8.98,12.97,4.1,3.26,9.37,4.88,15.8,4.88ZM256.84,62.26c-9.31,0-17.3-3.05-23.95-9.16-6.66-6.1-9.98-13.43-9.98-21.97s3.33-15.87,9.98-21.98c6.65-6.1,14.64-9.15,23.95-9.15s16.97,3.05,23.62,9.15c6.65,6.11,9.98,13.43,9.98,21.98s-3.33,15.87-9.98,21.97c-6.65,6.11-14.53,9.16-23.62,9.16ZM344.01,111.08c-9.1,0-16.97-3.05-23.62-9.16-6.66-6.1-9.98-13.43-9.98-21.97s3.33-15.87,9.98-21.98c6.65-6.1,14.52-9.15,23.62-9.15s17.3,3.05,23.95,9.15c6.65,6.11,9.98,13.43,9.98,21.98s-3.33,15.87-9.98,21.97c-6.65,6.11-14.64,9.16-23.95,9.16Z"/>
      <path class="cls-1" d="M62.44,553.71H3.8v-152.69c0-16.29,3.85-30.74,11.57-43.33,7.71-12.59,18.29-22.48,31.76-29.68,13.46-7.19,28.88-10.79,46.26-10.79s32.19,3.81,45.77,11.43c13.57,7.62,24.27,17.73,32.09,30.32,7.82,12.59,11.73,26.62,11.73,42.06,0,16.93-3.58,31.74-10.75,44.44-7.17,12.7-17.22,22.54-30.14,29.52-12.92,6.98-28.07,10.48-45.45,10.48-10.42,0-20.36-2.28-29.81-6.82-9.45-4.55-17.1-10.42-22.97-17.62-5.86-7.19-8.8-14.92-8.8-23.17h27.36v115.86ZM93.4,431.81c6.3,0,11.73-1.37,16.29-4.13,4.56-2.75,8.14-6.45,10.75-11.11,2.61-4.65,3.91-9.73,3.91-15.24s-1.3-10.84-3.91-15.4c-2.61-4.55-6.19-8.2-10.75-10.95s-9.99-4.13-16.29-4.13-11.46,1.38-16.13,4.13c-4.67,2.75-8.31,6.4-10.91,10.95-2.61,4.56-3.91,9.68-3.91,15.4s1.3,10.58,3.91,15.24c2.61,4.66,6.24,8.36,10.91,11.11,4.67,2.76,10.04,4.13,16.13,4.13Z"/>
      <path class="cls-1" d="M270.2,553.71h-57.27v-152.69c0-16.29,3.76-30.74,11.3-43.33,7.53-12.59,17.87-22.48,31.02-29.68,13.15-7.19,28.21-10.79,45.18-10.79s31.44,3.81,44.7,11.43c13.26,7.62,23.71,17.73,31.34,30.32,7.63,12.59,11.45,26.62,11.45,42.06,0,16.93-3.5,31.74-10.5,44.44-7,12.7-16.81,22.54-29.43,29.52-12.62,6.98-27.42,10.48-44.39,10.48-10.18,0-19.89-2.28-29.11-6.82-9.23-4.55-16.71-10.42-22.43-17.62-5.73-7.19-8.59-14.92-8.59-23.17h26.73v115.86ZM300.43,431.81c6.15,0,11.45-1.37,15.91-4.13,4.45-2.75,7.95-6.45,10.5-11.11,2.55-4.65,3.82-9.73,3.82-15.24s-1.27-10.84-3.82-15.4c-2.55-4.55-6.05-8.2-10.5-10.95-4.45-2.75-9.76-4.13-15.91-4.13s-11.19,1.38-15.75,4.13c-4.56,2.75-8.11,6.4-10.66,10.95-2.55,4.56-3.82,9.68-3.82,15.4s1.27,10.58,3.82,15.24c2.55,4.66,6.1,8.36,10.66,11.11,4.56,2.76,9.81,4.13,15.75,4.13Z"/>
    </g>
  </g>
</svg>