<?xml version="1.0" encoding="UTF-8"?>
<svg id="Layer_2" data-name="Layer 2" xmlns="http://www.w3.org/2000/svg" viewBox="0 0 837.23 290.45">
  <defs>
    <style>
      .cls-1 {
        fill: #f7ffbb;
      }
    </style>
  </defs>
  <g id="_1080_x_1080_px_Logo_Set_1" data-name="1080 x 1080 px Logo Set 1">
    <g>
      <path class="cls-1" d="M94.52,290.45c-17.87,0-33.91-4.01-48.12-12.03-14.21-8.02-25.49-18.72-33.85-32.08-8.37-13.37-12.54-28.07-12.54-44.11,0-17.82,3.78-33.42,11.34-46.79,7.56-13.37,18.21-23.73,31.97-31.08,13.75-7.35,29.67-11.03,47.77-11.03,11.22,0,21.77,2.34,31.62,7.02,9.85,4.68,17.87,10.86,24.06,18.55,6.19,7.69,9.28,15.87,9.28,24.56h-28.87V41.48h61.87v160.74c0,16.93-4.07,32.08-12.2,45.45-8.13,13.37-19.31,23.84-33.51,31.41-14.21,7.57-30.47,11.36-48.8,11.36ZM94.52,233.97c6.64,0,12.37-1.45,17.18-4.35,4.82-2.89,8.6-6.79,11.34-11.69,2.75-4.9,4.13-10.24,4.13-16.04s-1.38-11.14-4.13-16.04c-2.75-4.9-6.53-8.8-11.34-11.69-4.81-2.9-10.54-4.35-17.18-4.35s-12.09,1.45-17.01,4.35c-4.93,2.9-8.77,6.79-11.51,11.69-2.75,4.9-4.13,10.25-4.13,16.04s1.38,11.14,4.13,16.04c2.75,4.9,6.58,8.8,11.51,11.69,4.92,2.9,10.59,4.35,17.01,4.35Z"/>
      <path class="cls-1" d="M310.36,234.45c6.64,0,12.08-1.71,16.33-5.12,4.24-3.41,7.33-7.95,9.28-13.6,1.94-5.65,2.92-11.78,2.92-18.4v-71.68h61.87v78.72c0,15.58-3.32,29.92-9.97,43.04-6.65,13.12-16.61,23.57-29.9,31.36-13.3,7.79-30.13,11.68-50.52,11.68s-36.95-3.89-50.36-11.68c-13.4-7.79-23.43-18.24-30.07-31.36-6.65-13.12-9.97-27.47-9.97-43.04v-78.72h61.87v71.68c0,6.61.97,12.75,2.92,18.4,1.94,5.66,5.03,10.19,9.28,13.6,4.23,3.42,9.67,5.12,16.33,5.12ZM261.9,65.28c-9.62,0-17.87-3.2-24.74-9.6-6.88-6.4-10.31-14.08-10.31-23.04s3.44-16.64,10.31-23.04,15.12-9.6,24.74-9.6,17.53,3.2,24.4,9.6c6.87,6.4,10.31,14.08,10.31,23.04s-3.44,16.64-10.31,23.04c-6.88,6.4-15.01,9.6-24.4,9.6ZM355.38,106.76c-9.4,0-17.53-3.2-24.4-9.6-6.87-6.4-10.31-14.08-10.31-23.04s3.44-16.64,10.31-23.04c6.88-6.4,15.01-9.6,24.4-9.6s17.87,3.2,24.74,9.6c6.88,6.4,10.31,14.08,10.31,23.04s-3.44,16.64-10.31,23.04c-6.87,6.4-15.12,9.6-24.74,9.6Z"/>
      <path class="cls-1" d="M493.54,279.89h-61.87V125.97c0-16.42,4.06-30.99,12.2-43.68,8.13-12.69,19.3-22.67,33.51-29.92,14.2-7.25,30.47-10.88,48.81-10.88s33.96,3.84,48.29,11.52c14.32,7.68,25.61,17.87,33.86,30.56,8.25,12.7,12.37,26.83,12.37,42.4,0,17.07-3.78,32-11.34,44.8-7.56,12.8-18.16,22.72-31.79,29.76-13.64,7.04-29.62,10.56-47.95,10.56-11,0-21.48-2.3-31.45-6.88-9.97-4.59-18.05-10.51-24.23-17.76-6.19-7.25-9.28-15.04-9.28-23.36h28.87v116.8ZM526.19,157.01c6.64,0,12.37-1.38,17.18-4.16,4.81-2.77,8.59-6.5,11.34-11.2,2.75-4.69,4.13-9.81,4.13-15.36s-1.38-10.93-4.13-15.52c-2.75-4.58-6.53-8.26-11.34-11.04-4.81-2.77-10.54-4.16-17.18-4.16s-12.09,1.39-17.02,4.16c-4.93,2.77-8.76,6.45-11.51,11.04-2.75,4.59-4.13,9.76-4.13,15.52s1.38,10.67,4.13,15.36c2.75,4.7,6.59,8.43,11.51,11.2,4.92,2.78,10.6,4.16,17.02,4.16Z"/>
      <path class="cls-1" d="M710.06,279.89h-61.87V125.97c0-16.42,4.06-30.99,12.2-43.68,8.13-12.69,19.3-22.67,33.51-29.92,14.2-7.25,30.47-10.88,48.81-10.88s33.96,3.84,48.29,11.52c14.32,7.68,25.61,17.87,33.86,30.56,8.25,12.7,12.37,26.83,12.37,42.4,0,17.07-3.78,32-11.34,44.8-7.56,12.8-18.16,22.72-31.79,29.76-13.64,7.04-29.62,10.56-47.95,10.56-11,0-21.48-2.3-31.45-6.88-9.97-4.59-18.05-10.51-24.23-17.76-6.19-7.25-9.28-15.04-9.28-23.36h28.87v116.8ZM742.72,157.01c6.64,0,12.37-1.38,17.18-4.16,4.81-2.77,8.59-6.5,11.34-11.2,2.75-4.69,4.13-9.81,4.13-15.36s-1.38-10.93-4.13-15.52c-2.75-4.58-6.53-8.26-11.34-11.04-4.81-2.77-10.54-4.16-17.18-4.16s-12.09,1.39-17.02,4.16c-4.93,2.77-8.76,6.45-11.51,11.04-2.75,4.59-4.13,9.76-4.13,15.52s1.38,10.67,4.13,15.36c2.75,4.7,6.59,8.43,11.51,11.2,4.92,2.78,10.6,4.16,17.02,4.16Z"/>
    </g>
  </g>
</svg>